<?xml version="1.0" standalone="no"?>
<!DOCTYPE svg PUBLIC "-//W3C//DTD SVG 20010904//EN"
 "http://www.w3.org/TR/2001/REC-SVG-20010904/DTD/svg10.dtd">
<svg version="1.0" xmlns="http://www.w3.org/2000/svg"
 width="512.000000pt" height="512.000000pt" viewBox="0 0 512.000000 512.000000"
 preserveAspectRatio="xMidYMid meet">
<metadata>
Created by potrace 1.14, written by Peter Selinger 2001-2017
</metadata>
<g transform="translate(0.000000,512.000000) scale(0.100000,-0.100000)"
fill="#000000" stroke="none">
<path d="M3536 5109 c-27 -4 -63 -10 -80 -12 -80 -12 -265 -72 -277 -90 -3 -5
-10 -9 -15 -9 -5 0 -18 -4 -29 -8 -11 -4 -24 -8 -28 -8 -4 -1 -15 -8 -23 -17
-9 -8 -22 -15 -30 -15 -8 0 -14 -4 -14 -10 0 -5 -6 -10 -13 -10 -7 0 -23 -9
-35 -20 -12 -11 -24 -20 -27 -20 -8 0 -79 -58 -133 -107 -20 -18 -40 -33 -44
-33 -4 0 -8 -4 -8 -9 0 -5 -20 -31 -45 -57 -26 -27 -53 -61 -61 -76 -8 -16
-19 -28 -24 -28 -6 0 -10 -7 -10 -15 0 -8 -4 -15 -9 -15 -5 0 -13 -10 -17 -22
-8 -26 -34 -55 -34 -38 0 6 -4 9 -8 6 -5 -3 -19 4 -31 15 -12 11 -31 22 -43
24 -12 3 -25 10 -28 16 -4 6 -9 10 -11 9 -5 -2 -33 8 -94 35 -55 24 -209 67
-295 83 -55 10 -399 9 -455 -2 -16 -3 -66 -15 -110 -27 -44 -11 -90 -23 -102
-26 -13 -3 -23 -10 -23 -15 0 -5 -4 -7 -10 -3 -5 3 -17 1 -27 -4 -28 -16 -117
-54 -132 -57 -8 -1 -17 -7 -20 -13 -3 -5 -19 -13 -34 -16 -15 -4 -27 -10 -27
-14 0 -4 -16 -15 -35 -24 -19 -9 -35 -22 -35 -27 0 -6 -4 -9 -8 -6 -5 3 -20
-5 -34 -17 -14 -12 -41 -33 -59 -47 -35 -26 -179 -167 -214 -210 -20 -25 -99
-138 -122 -175 -22 -35 -88 -170 -88 -180 0 -5 -2 -12 -6 -15 -9 -8 -37 -91
-58 -170 -18 -71 -24 -100 -38 -195 -3 -22 -6 -168 -7 -325 l-1 -284 -35 -11
c-44 -14 -93 -37 -101 -48 -3 -5 -10 -8 -15 -8 -5 0 -19 -9 -32 -19 -12 -11
-24 -20 -27 -20 -6 0 -60 -55 -98 -101 -40 -48 -93 -164 -106 -229 -7 -37 -9
-371 -8 -995 2 -875 3 -944 20 -993 21 -61 61 -138 88 -168 11 -11 19 -26 19
-32 0 -7 3 -12 8 -12 4 0 25 -18 47 -40 22 -21 46 -39 53 -40 6 0 12 -4 12 -8
0 -5 29 -22 64 -40 130 -65 56 -62 1537 -62 1454 0 1384 -2 1517 52 38 16 55
19 60 11 4 -7 29 -21 55 -32 165 -71 374 0 452 154 11 22 24 43 28 46 5 3 8 9
7 13 -6 21 11 46 32 46 46 0 103 49 116 100 8 32 8 177 0 213 -12 55 -69 107
-116 107 -18 0 -20 7 -18 72 l1 72 35 9 c43 10 85 53 97 98 7 28 9 321 2 367
-4 25 -58 74 -96 87 l-38 13 -1 156 c-1 135 1 159 16 176 10 11 21 20 26 20 5
0 16 10 24 21 8 12 21 27 28 35 6 7 12 19 12 26 0 8 5 19 10 24 20 20 22 61
24 403 l1 345 50 20 c28 11 53 25 57 30 4 6 8 8 8 4 0 -4 17 2 37 13 20 11 58
32 85 46 26 14 48 28 48 32 0 4 14 15 32 25 32 20 60 42 108 86 15 14 36 32
46 41 46 40 174 200 174 218 0 6 3 11 8 11 4 0 12 10 18 23 6 12 22 42 36 67
14 25 33 68 44 95 10 28 20 52 23 55 4 3 8 12 10 20 2 8 10 38 18 65 16 57 24
100 27 133 0 12 3 22 6 22 13 0 18 235 7 340 -3 30 -6 55 -7 55 -1 0 -3 11 -5
25 -2 14 -6 36 -10 50 -4 14 -7 33 -7 43 1 9 -3 17 -8 17 -5 0 -7 7 -4 15 3 8
2 20 -2 27 -5 7 -9 15 -9 18 0 3 -5 19 -12 35 -6 17 -15 39 -19 50 -4 11 -6
23 -6 28 1 4 -3 7 -10 7 -6 0 -9 3 -5 6 6 7 -74 159 -105 199 -5 6 -28 36 -51
67 -60 78 -114 136 -178 189 -30 24 -56 47 -59 50 -23 29 -184 118 -325 180
-26 11 -155 46 -225 60 -68 13 -318 19 -384 8z m244 -285 c8 -4 17 -8 20 -9 3
0 19 -8 35 -18 76 -42 132 -123 141 -204 3 -27 7 -53 9 -60 2 -7 0 -15 -5 -18
-4 -3 -7 -13 -6 -22 5 -35 -67 -144 -117 -176 -146 -94 -339 -43 -414 110 -68
141 -5 320 135 380 20 8 43 18 51 22 17 8 130 4 151 -5z m-1815 -709 c67 -9
78 -11 125 -25 25 -7 48 -13 53 -12 4 1 7 -2 7 -8 0 -5 3 -9 8 -8 4 1 21 -5
37 -12 17 -7 33 -13 37 -12 3 1 12 -5 18 -13 7 -8 16 -15 21 -15 9 0 54 -30
110 -72 l36 -28 -1 -80 c-1 -44 2 -80 6 -80 3 0 5 -7 4 -16 -2 -15 4 -68 19
-154 4 -19 16 -66 28 -105 11 -38 21 -72 22 -75 18 -59 111 -238 145 -277 11
-12 18 -23 15 -23 -3 0 7 -13 21 -30 25 -27 27 -36 27 -118 0 -49 -2 -93 -6
-98 -4 -7 -1670 -12 -1697 -5 -5 1 -5 469 -1 481 1 3 4 30 5 60 2 30 8 66 14
80 5 14 9 27 9 30 -1 11 26 86 41 115 9 17 17 35 18 41 2 15 57 98 67 102 4 2
7 10 7 18 0 8 5 14 10 14 6 0 10 5 10 10 0 17 165 171 174 163 3 -3 8 2 12 11
3 9 10 16 16 16 5 0 30 12 56 27 26 16 49 28 52 28 3 1 15 6 27 13 12 6 30 13
40 15 10 2 30 9 45 15 15 6 47 14 70 17 24 4 59 10 78 14 36 7 144 5 215 -4z"/>
</g>
</svg>
